<svg width="25" height="22" viewBox="0 0 25 22" fill="none" xmlns="http://www.w3.org/2000/svg">
<path d="M17.1324 12.3734C17.1324 12.6259 17.0322 12.868 16.8537 13.0465C16.6752 13.225 16.4331 13.3252 16.1806 13.3252H13.3252V16.1806C13.3252 16.4331 13.225 16.6752 13.0465 16.8537C12.868 17.0322 12.6259 17.1324 12.3734 17.1324C12.121 17.1324 11.8789 17.0322 11.7004 16.8537C11.5219 16.6752 11.4216 16.4331 11.4216 16.1806V13.3252H8.56622C8.31379 13.3252 8.07169 13.225 7.8932 13.0465C7.7147 12.868 7.61442 12.6259 7.61442 12.3734C7.61442 12.121 7.7147 11.8789 7.8932 11.7004C8.07169 11.5219 8.31379 11.4216 8.56622 11.4216H11.4216V8.56622C11.4216 8.31379 11.5219 8.07169 11.7004 7.8932C11.8789 7.7147 12.121 7.61442 12.3734 7.61442C12.6259 7.61442 12.868 7.7147 13.0465 7.8932C13.225 8.07169 13.3252 8.31379 13.3252 8.56622V11.4216H16.1806C16.4331 11.4216 16.6752 11.5219 16.8537 11.7004C17.0322 11.8789 17.1324 12.121 17.1324 12.3734ZM24.7469 5.71081V19.036C24.7469 19.7933 24.446 20.5196 23.9105 21.0551C23.375 21.5906 22.6488 21.8915 21.8915 21.8915H2.85541C2.09811 21.8915 1.37182 21.5906 0.836329 21.0551C0.300837 20.5196 0 19.7933 0 19.036V5.71081C0 4.95351 0.300837 4.22723 0.836329 3.69174C1.37182 3.15624 2.09811 2.85541 2.85541 2.85541H6.1534L7.49544 0.847104C7.66898 0.587005 7.90391 0.373656 8.17948 0.225913C8.45504 0.0781687 8.76276 0.000578915 9.07543 0H15.6714C15.9841 0.000578915 16.2918 0.0781687 16.5674 0.225913C16.843 0.373656 17.0779 0.587005 17.2514 0.847104L18.5935 2.85541H21.8915C22.6488 2.85541 23.375 3.15624 23.9105 3.69174C24.446 4.22723 24.7469 4.95351 24.7469 5.71081ZM22.8433 5.71081C22.8433 5.45838 22.743 5.21629 22.5645 5.03779C22.386 4.85929 22.1439 4.75901 21.8915 4.75901H18.0842C17.9275 4.75911 17.7732 4.72051 17.6349 4.64662C17.4967 4.57273 17.3789 4.46584 17.2919 4.33546L15.6714 1.9036H9.07543L7.45499 4.33546C7.368 4.46584 7.25016 4.57273 7.11193 4.64662C6.9737 4.72051 6.81936 4.75911 6.66262 4.75901H2.85541C2.60297 4.75901 2.36088 4.85929 2.18238 5.03779C2.00388 5.21629 1.9036 5.45838 1.9036 5.71081V19.036C1.9036 19.2885 2.00388 19.5306 2.18238 19.7091C2.36088 19.8876 2.60297 19.9878 2.85541 19.9878H21.8915C22.1439 19.9878 22.386 19.8876 22.5645 19.7091C22.743 19.5306 22.8433 19.2885 22.8433 19.036V5.71081Z" fill="#343330"/>
</svg>
